<?xml version="1.0" standalone="no"?>
<!DOCTYPE svg PUBLIC "-//W3C//DTD SVG 1.1//EN"
  "http://www.w3.org/Graphics/SVG/1.1/DTD/svg11.dtd">
<svg width="13.978011131286621mm" height="13.978012084960938mm" viewBox="-7.9890055656433105 7.010993957519531 13.978011131286621 13.978012084960938" xmlns="http://www.w3.org/2000/svg" version="1.1">
	<title>svgOutput</title>
	<desc>made with tinkercad</desc>
<path d="M -5.901066780090332 10.597514152526855 L -5.587873935699463 10.15017032623291 L -4.84982967376709 9.412126541137695 L -4.442086219787598 9.126753807067871 L -4.0960001945495605 8.884452819824219 L -3.994741916656494 8.813560485839844 L -3.994293212890625 8.813350677490234 L -3.5430209636688232 8.602757453918457 L -3.048175811767578 8.372037887573242 L -2.567296266555786 8.243453025817871 L -2.3755335807800293 8.192000389099121 L -2.040087938308716 8.101994514465332 L -2.0373857021331787 8.101757049560547 L -1.5439120531082153 8.05849552154541 L -1 8.010993957519531 L -0.5038241147994995 8.054492950439453 L 1.910984249419404e-17 8.098493576049805 L 0.040087953209877014 8.101994514465332 L 0.04110643267631531 8.102266311645508 L 0.3766893446445465 8.192000389099121 L 0.5209674835205078 8.230579376220703 L 1.0481759309768677 8.372037887573242 L 1.499896764755249 8.582840919494629 L 1.9947419166564941 8.813560485839844 L 1.9956371784210205 8.814187049865723 L 2.256842613220215 8.996999740600586 L 2.4024856090545654 9.098933219909668 L 2.849829912185669 9.412126541137695 L 3.587873697280884 10.15017032623291 L 3.873246669769287 10.557913780212402 L 4.0960001945495605 10.876079559326172 L 4.1864399909973145 11.005258560180664 L 4.186649322509766 11.005706787109375 L 4.397243022918701 11.456978797912598 L 4.6279616355896 11.951824188232422 L 4.717853546142578 12.288000106811523 L 4.756546974182129 12.432703971862793 L 4.898005962371826 12.959912300109863 L 4.898242473602295 12.962614059448242 L 4.941504955291748 13.456088066101074 L 4.9890055656433105 14 L 4.945506572723389 14.496175765991211 L 4.898005962371826 15.040087699890137 L 4.897733211517334 15.041106224060059 L 4.769420623779297 15.520967483520508 L 4.6279616355896 16.048175811767578 L 4.471243858337402 16.384000778198242 L 4.417158603668213 16.499897003173828 L 4.1864399909973145 16.994741439819336 L 4.185812950134277 16.995637893676758 L 4.0960001945495605 17.12396240234375 L 4.001999855041504 17.258272171020508 L 3.901067018508911 17.402484893798828 L 3.587873697280884 17.849830627441406 L 2.849829912185669 18.587873458862305 L 2.4420859813690186 18.873247146606445 L 1.9947419166564941 19.186439514160156 L 1.994293212890625 19.186649322509766 L 1.5430210828781128 19.39724349975586 L 1.0481759309768677 19.627962112426758 L 0.5672963857650757 19.756546020507812 L 0.040087953209877014 19.898006439208984 L 0.03738570585846901 19.898242950439453 L 0 19.901519775390625 L -0.45608794689178467 19.941505432128906 L -1 19.98900604248047 L -1.4961758852005005 19.945507049560547 L -2.040087938308716 19.898006439208984 L -2.0411064624786377 19.897733688354492 L -2.520967483520508 19.769420623779297 L -3.048175811767578 19.627962112426758 L -3.499896764755249 19.417158126831055 L -3.994741916656494 19.186439514160156 L -3.9956371784210205 19.185813903808594 L -4.0960001945495605 19.115570068359375 L -4.258271217346191 19.00200080871582 L -4.4024858474731445 18.90106773376465 L -4.84982967376709 18.587873458862305 L -5.587873935699463 17.849830627441406 L -5.873246669769287 17.44208526611328 L -6.1864399909973145 16.994741439819336 L -6.186649322509766 16.994293212890625 L -6.397243022918701 16.543020248413086 L -6.471385478973389 16.384000778198242 L -6.6279616355896 16.048175811767578 L -6.756546974182129 15.567296028137207 L -6.898005962371826 15.040087699890137 L -6.898242473602295 15.037385940551758 L -6.941504955291748 14.543911933898926 L -6.9890055656433105 14 L -6.945506572723389 13.503824234008789 L -6.898005962371826 12.959912300109863 L -6.897733211517334 12.958893775939941 L -6.769420623779297 12.479032516479492 L -6.71816349029541 12.288000106811523 L -6.6279616355896 11.951824188232422 L -6.417158603668213 11.500102996826172 L -6.1864399909973145 11.005258560180664 L -6.185812950134277 11.004363059997559 L -6.001999855041504 10.741728782653809 L -5.901066780090332 10.597514152526855 M -2.3502514362335205 18.785947799682617 L -2.0480000972747803 18.86700439453125 L -1.8666945695877075 18.915626525878906 L -1.4985419511795044 18.94782257080078 L -1.0015957355499268 18.99091148376465 L -1 18.99104881286621 L -0.6318473219871521 18.958852767944336 L -0.1333054006099701 18.915626525878906 L 4.640871184129773e-18 18.880002975463867 L 0.22340872883796692 18.82030487060547 L 0.7046741843223572 18.691240310668945 L 0.7069655656814575 18.69062614440918 L 1.0416498184204102 18.534297943115234 L 1.4958128929138184 18.322778701782227 L 1.7987233400344849 18.110952377319336 L 2.0480000972747803 17.93635368347168 L 2.208507537841797 17.823930740356445 L 2.8227972984313965 17.209640502929688 L 2.8239312171936035 17.208507537841797 L 3.0357565879821777 16.905597686767578 L 3.3227784633636475 16.495813369750977 L 3.375005006790161 16.384000778198242 L 3.4791057109832764 16.161128997802734 L 3.6906256675720215 15.706965446472168 L 3.7863707542419434 15.350251197814941 L 3.915832281112671 14.867504119873047 L 3.9160494804382324 14.866694450378418 L 3.9478232860565186 14.498541831970215 L 3.961916446685791 14.336000442504883 L 3.991049289703369 14 L 3.959275484085083 13.631847381591797 L 3.916088819503784 13.133761405944824 L 3.9160494804382324 13.133305549621582 L 3.8203041553497314 12.776591300964355 L 3.6912403106689453 12.295326232910156 L 3.6906256675720215 12.293034553527832 L 3.6882741451263428 12.288000106811523 L 3.5342984199523926 11.95835018157959 L 3.3227784633636475 11.50418758392334 L 3.110952854156494 11.201276779174805 L 2.8239312171936035 10.791492462158203 L 2.209641218185425 10.177202224731445 L 2.208507537841797 10.176069259643555 L 2.0480000972747803 10.063825607299805 L 1.9055969715118408 9.964242935180664 L 1.4958128929138184 9.677221298217773 L 1.1611286401748657 9.520894050598145 L 0.7069655656814575 9.30937385559082 L 0.3502514362335205 9.213628768920898 L 9.281742368259545e-18 9.11970043182373 L -0.1333054006099701 9.083950996398926 L -0.5014581084251404 9.051753044128418 L -0.9984042644500732 9.008665084838867 L -1 9.008526802062988 L -1.3681527376174927 9.040724754333496 L -1.8662382364273071 9.083910942077637 L -1.8666945695877075 9.083950996398926 L -2.0480000972747803 9.132614135742188 L -2.2234086990356445 9.179696083068848 L -2.704674243927002 9.308759689331055 L -2.706965446472168 9.30937385559082 L -3.04164981842041 9.46570110321045 L -3.4958128929138184 9.677221298217773 L -3.7987232208251953 9.889046669006348 L -4.0960001945495605 10.09726619720459 L -4.208507537841797 10.176069259643555 L -4.8227972984313965 10.790358543395996 L -4.8239312171936035 10.791492462158203 L -5.035756587982178 11.094403266906738 L -5.322778224945068 11.50418758392334 L -5.479105472564697 11.838871002197266 L -5.688281059265137 12.288000106811523 L -5.6906256675720215 12.293034553527832 L -5.786370754241943 12.649748802185059 L -5.915832042694092 13.132495880126953 L -5.916049480438232 13.133305549621582 L -5.9478230476379395 13.501458168029785 L -5.991049289703369 14 L -5.962050437927246 14.336000442504883 L -5.959275722503662 14.368152618408203 L -5.916089057922363 14.866238594055176 L -5.916049480438232 14.866694450378418 L -5.8203043937683105 15.223408699035645 L -5.691240310668945 15.704673767089844 L -5.6906256675720215 15.706965446472168 L -5.534298419952393 16.041650772094727 L -5.374853610992432 16.384000778198242 L -5.322778224945068 16.495813369750977 L -5.110952854156494 16.798723220825195 L -4.8239312171936035 17.208507537841797 L -4.209640979766846 17.822797775268555 L -4.208507537841797 17.823930740356445 L -4.0960001945495605 17.902606964111328 L -3.905596971511841 18.035757064819336 L -3.4958128929138184 18.322778701782227 L -3.161128520965576 18.47910499572754 L -2.708690881729126 18.689823150634766 L -2.706965446472168 18.69062614440918 L -2.3502514362335205 18.785947799682617 z" fill="none" stroke="rgb(0,0,255)" stroke-width="0.01mm" />
</svg>